<?xml version="1.0" encoding="utf-8"?>
<!-- Generator: Adobe Illustrator 28.0.0, SVG Export Plug-In . SVG Version: 6.00 Build 0)  -->
<svg version="1.1" id="Слой_1" xmlns="http://www.w3.org/2000/svg" xmlns:xlink="http://www.w3.org/1999/xlink" x="0px" y="0px"
	 viewBox="0 0 460 172" style="enable-background:new 0 0 460 172;" xml:space="preserve">
<style type="text/css">
	.st0{fill:#FC8869;}
	.st1{fill:#96CDAD;}
</style>
<g>
	<g>
		<path class="st0" d="M31.2,61.8c-1.7-4.1-0.5-9,3.1-11.7c2.5-1.9,5.9-3.3,10.2-2.4c10,2,19,12,19,12s2,1,5-3s6-14-2-19
			s-28-11-44-2s-14,23-14,23s2,21,26,29s18,20,18,20s-7,12-23,6c0,0-10-5-15-14c0,0-11,0-11,11s13,17,13,17s27,11,45-2s10-33,10-33
			s-8-12-21-17C40.1,71.7,34.1,69,31.2,61.8z"/>
		<path class="st0" d="M151.5,110.7c0-9,2-44,2-44s-6-11-15-5c0,0-3,3-3,6c0,0-14-17-39-2s-11,52-11,52s8,18,31,15c0,0,12-1,18-10
			c0,0,4,12,15,10s13-10,14-18C163.5,114.7,151.5,119.7,151.5,110.7z M133,98.2c0,0-4,19-18,19s-13-21-13-21s2-20,19-19
			S133,98.2,133,98.2z"/>
		<path class="st0" d="M174,60.2c0,0-6,3-6,16s0,40,0,40s0,17,20,16s24-13,24-13s1,30-18,31c0,0-6,0-16-5c0,0-4-4-9,2s3,13,3,13
			s8,7,23,6s31-8,36-32s3-67,3-67s0-6-13-7c0,0-7.5-1.5-7.5,10.5s0,24,0,24s-4,19-16,19s-10-15-10-15v-29c0,0,1-5-5-8
			S174,60.2,174,60.2z"/>
		<path class="st0" d="M248.5,43.7c0,0,0-11,7-11s10,0,10,0s5,0,5,7s0,32,0,32h36v-28c0,0,1-7,8-7s7,0,7,0s6,0,6,6s0,78,0,78
			s0,11-6,11s-13,0-13,0s-3,0-3-5s0-36,0-36h-36v35c0,0-2,6-7,6s-7,0-7,0s-8,0-8-7S248.5,43.7,248.5,43.7z"/>
		<path class="st0" d="M353.1,131.7h-3.3c-4.1,0-7.4-3.3-7.4-7.4V76.1c0-4.1,3.3-7.4,7.4-7.4h3.3c4.1,0,7.4,3.3,7.4,7.4v48.3
			C360.5,128.4,357.2,131.7,353.1,131.7z"/>
		<circle class="st0" cx="351.5" cy="50.7" r="10"/>
	</g>
	<path class="st1" d="M314.5,24.7c0,0,6-19,35-19s61,0,61,0s46,6,46,58s-51,58-51,58s-2,19-23,19l2-17h-13l-1-53c0,0-1-5-5-6
		c0,0,7-5,7-16s-11-16-11-16s-14-6-24,4C337.5,36.7,329.5,24.7,314.5,24.7z"/>
</g>
</svg>
